<svg width="50" height="50" fill="none" xmlns="http://www.w3.org/2000/svg"><path d="M14 5c-2.9102 0-5.39062 2.07031-5.84375 4.875-.01172.06641-.05469.12109-.0625.1875H8.125c-.03516.1523-.07422.293-.09375.4375-.30469.2109-.59766.4375-.84375.6875-1.17578 1.1875-1.67188 2.6797-2.03125 3.9063-.00391.0078.00391.0234 0 .0312C3.85938 19.1133 1.53516 28.5547 1 30.7188.375 32.0234 0 33.4609 0 35c0 5.5117 4.48828 10 10 10 5.3867 0 9.7695-4.2852 9.9688-9.625C21.1016 36.2109 22.7422 37 25 37s3.8984-.7891 5.0312-1.625C30.2305 40.7148 34.6133 45 40 45c5.5117 0 10-4.4883 10-10 0-1.1289-.1836-2.207-.5312-3.2188-.1641-.6562-3.1172-12.3906-4.4063-16.6562v-.0312c-.4063-1.2188-.9453-2.711-2.125-3.9063-.293-.2969-.625-.5703-1-.8125-.0195-.1055-.0352-.2031-.0625-.3125h.0312c-.0078-.06641-.0507-.12109-.0624-.1875C41.3906 7.07031 38.9102 5 36 5c-3.3242 0-6 2.67578-6 6 0 .7344.1211 1.4453.3438 2.0938-.4649.539-.8555 1.0273-1.125 1.2812-.1133.1055-.1211.1016-.1563.125-1.1367-.8359-2.5078-1.4062-3.9687-1.4062-1.4571 0-2.8907.5234-4 1.4062-.0391-.0234-.043-.0195-.1563-.125-.293-.2734-.7344-.8086-1.25-1.4062C19.8867 12.3516 20 11.6914 20 11c0-3.32422-2.6758-6-6-6zm0 2c2.2773 0 4 1.72266 4 4 0 .0859-.0273.1641-.0312.25-1.2696-1.0898-2.9024-2.0625-5.0626-2.0625-.9687 0-1.8359.09375-2.5937.28125C10.8633 8.01562 12.293 7 14 7zm22 0c1.6914 0 3.0938 1.00391 3.6562 2.4375-.6992-.16016-1.4687-.25-2.3437-.25-2.2422 0-3.9766 1.043-5.2813 2.1875C32.0195 11.2461 32 11.125 32 11c0-2.27734 1.7227-4 4-4zm-23.0938 4.1875c1.9961 0 3.375 1.0742 4.5313 2.2813.0117.5039.4023.9218.9063.9687.4257.4961.832.9844 1.25 1.375.2851.2656.5742.5195 1.0312.6563.457.1367 1.1055.0351 1.5-.2813l.0312-.0313c.668-.5937 1.8946-1.0624 2.9376-1.0624 1.0429 0 2.1406.4296 2.9687 1.0937v-.0313h.0313c.3867.3165 1.0234.4493 1.4687.3126.457-.1407.7187-.3907 1-.6563.4219-.3984.8398-.8984 1.2813-1.4063.3476-.1054.6132-.3945.6874-.75 1.2071-1.2851 2.6758-2.4687 4.7813-2.4687 1.3164 0 2.2539.1992 2.9687.5313.1211.121.2735.207.4376.25.0312.0117.0624.0234.0937.0312.2695.1758.5117.3828.7187.5938.7891.8007 1.2344 1.9218 1.625 3.0937.004.0078-.0039.0234 0 .0313.7696 2.5507 2.0508 7.3984 3.0938 11.4687C44.5352 25.8086 42.3633 25 40 25c-4.5312 0-8.3711 3.043-9.5938 7.1875-.0742.0625-.1367.1367-.1874.2187 0 0-1.2891 2.5938-5.2188 2.5938s-5.2188-2.5938-5.2188-2.5938c-.0507-.0937-.1132-.1757-.1874-.25C18.3633 28.0273 14.5234 25 10 25c-2.26562 0-4.35156.7578-6.03125 2.0312 1.03516-4.0624 2.28906-8.8359 3.09375-11.3124v-.0313c.33984-1.1641.74219-2.293 1.53125-3.0937.78906-.8008 2.00005-1.4063 4.31245-1.4063zM25 25c-2.1992 0-4 1.8008-4 4 0 2.1992 1.8008 4 4 4 2.1992 0 4-1.8008 4-4 0-2.1992-1.8008-4-4-4zm-15 2c4.4297 0 8 3.5703 8 8s-3.5703 8-8 8c-4.42969 0-8-3.5703-8-8 0-.6016.0625-1.1875.1875-1.75.19922-.1523.33203-.375.375-.625 0 0 .26172-1.0781.3125-1.2812C4.19922 28.7617 6.89062 27 10 27zm15 0c1.1172 0 2 .8828 2 2s-.8828 2-2 2-2-.8828-2-2 .8828-2 2-2zm15 0c3.4844 0 6.4297 2.2148 7.5312 5.3125.004.0156.0938.3437.0938.3437.0273.1016.0703.1954.125.2813.1758.6563.25 1.3477.25 2.0625 0 4.4297-3.5703 8-8 8s-8-3.5703-8-8 3.5703-8 8-8zM4.90625 33.9688c-.04297.0078-.08594.0195-.125.0312-.46484.1055-.79297.5234-.78125 1 0 3.3242 2.67578 6 6 6 .3594.0039.6953-.1836.8789-.4961.1797-.3125.1797-.6953 0-1.0078-.1836-.3125-.5195-.5-.8789-.4961-2.27734 0-4-1.7227-4-4 .01172-.2891-.10547-.5664-.3125-.7617-.21094-.1992-.49609-.2969-.78125-.2695zm30.99995 0c-.0429.0078-.0859.0195-.125.0312-.4648.1055-.7929.5234-.7812 1 0 3.3242 2.6758 6 6 6 .3594.0039.6953-.1836.8789-.4961.1797-.3125.1797-.6953 0-1.0078-.1836-.3125-.5195-.5-.8789-.4961-2.2773 0-4-1.7227-4-4 .0117-.2891-.1055-.5664-.3125-.7617-.2109-.1992-.4961-.2969-.7813-.2695z" fill="#216E7A"/><circle opacity=".8" cx="10" cy="35" r="8" fill="#216E7A"/><circle opacity=".8" cx="40" cy="35" r="8" fill="#216E7A"/><path d="M5.98193 34.8108c-.1045-.5423-.62884-.8972-1.17115-.7927-.54231.1045-.89722.6288-.79271 1.1711l1.96386-.3784zm3.89925 6.1821c.54832.0656 1.04612-.3257 1.11172-.8741.0656-.5483-.3257-1.0461-.8741-1.1117l-.23762 1.9858zm-5.86311-5.8037c.34196 1.7746.81899 3.1797 1.79625 4.1688.99693 1.0091 2.35628 1.4302 4.06686 1.6349l.23762-1.9858c-1.55655-.1863-2.36272-.5294-2.88176-1.0547-.53871-.5453-.9281-1.4447-1.25511-3.1416l-1.96386.3784zM35.9819 34.8108c-.1045-.5423-.6288-.8972-1.1711-.7927-.5423.1045-.8972.6288-.7927 1.1711l1.9638-.3784zm3.8993 6.1821c.5483.0656 1.0461-.3257 1.1117-.8741.0656-.5483-.3257-1.0461-.8741-1.1117l-.2376 1.9858zm-5.8631-5.8037c.3419 1.7746.819 3.1797 1.7962 4.1688.997 1.0091 2.3563 1.4302 4.0669 1.6349l.2376-1.9858c-1.5566-.1863-2.3627-.5294-2.8818-1.0547-.5387-.5453-.9281-1.4447-1.2551-3.1416l-1.9638.3784z" fill="#fff"/></svg>