<svg width="1920" height="803" fill="none" xmlns="http://www.w3.org/2000/svg"><g clip-path="url(#clip0)" fill="#2A8086"><path d="M7.5-174l-20 671-7.9991 135.482c-1.3567 22.978 16.91208 42.358 39.9304 42.358H125.243c5.559 0 11.057-1.159 16.144-3.403l188.964-83.355c5.086-2.244 10.585-3.403 16.144-3.403h298.78c9.266 0 18.244 3.217 25.402 9.101l91.458 75.186c4.701 3.865 10.222 6.606 16.142 8.015l365.303 86.932c3.04.722 6.15 1.087 9.26 1.087h433.75c5.22 0 10.39-1.022 15.22-3.008l194.54-80.026c10.97-4.516 23.39-3.924 33.88 1.616l81.45 42.984c20.09 10.605 44.97 2.364 54.76-18.139l67.66-141.671c2.57-5.382 3.9-11.272 3.9-17.237V413.191c0-19.292-15.64-34.932-34.93-34.932-18.26 0-33.44-14.066-34.83-32.274L1929-168.5 7.5-174z"/><path opacity=".3" d="M7.5-144l-20 671-7.9991 135.482c-1.3567 22.978 16.91208 42.358 39.9304 42.358H125.243c5.559 0 11.057-1.159 16.144-3.403l188.964-83.355c5.086-2.244 10.585-3.403 16.144-3.403h298.78c9.266 0 18.244 3.217 25.402 9.101l91.458 75.186c4.701 3.865 10.222 6.606 16.142 8.015l365.303 86.932c3.04.722 6.15 1.087 9.26 1.087h433.75c5.22 0 10.39-1.022 15.22-3.008l193.89-79.763c11.35-4.666 24.2-3.87 34.88 2.159l90.11 50.862c21.25 11.993 48.19 2.334 56.98-20.426l57.64-149.29c1.78-4.596 2.69-9.481 2.69-14.408V443.191c0-19.292-15.64-34.932-34.93-34.932-18.26 0-33.44-14.066-34.83-32.274L1929-138.5 7.5-144z"/></g><defs><clipPath id="clip0"><path fill="#fff" transform="translate(-23)" d="M0 0h2061v803H0z"/></clipPath></defs></svg>