<svg width="56" height="56" fill="none" xmlns="http://www.w3.org/2000/svg"><circle cx="28" cy="28" r="28" fill="#B9D5D9"/><path d="M28 18c-2.7525 0-5 2.2475-5 5s2.2475 5 5 5 5-2.2475 5-5-2.2475-5-5-5zm0 1.5c1.9419 0 3.5 1.5581 3.5 3.5s-1.5581 3.5-3.5 3.5-3.5-1.5581-3.5-3.5 1.5581-3.5 3.5-3.5zM21.9893 30C20.8994 30 20 30.8994 20 31.9893v.7607c0 1.8021 1.1396 3.1961 2.6533 4.0312C24.167 37.6164 26.0841 38 28 38c1.9159 0 3.833-.3836 5.3467-1.2188 1.2906-.712 2.262-1.8499 2.5342-3.2812h.1201v-1.5107c0-1.0899-.9004-1.9893-1.9903-1.9893H21.9893zm0 1.5h12.0214c.2791 0 .4903.2102.4903.4893V32H34.5v.75c0 1.1979-.6729 2.0539-1.8779 2.7188C31.417 36.1336 29.7091 36.5 28 36.5c-1.7091 0-3.417-.3664-4.6221-1.0312-1.205-.6649-1.8779-1.5209-1.8779-2.7188v-.7607c0-.2791.2102-.4893.4893-.4893z" fill="#fff"/><path d="M28 18c-2.7525 0-5 2.2475-5 5s2.2475 5 5 5 5-2.2475 5-5-2.2475-5-5-5zm-6.0107 12C20.8994 30 20 30.8994 20 31.9893v.7607c0 1.8021 1.1396 3.1961 2.6533 4.0312C24.167 37.6164 26.0841 38 28 38c1.9159 0 3.833-.3836 5.3467-1.2188 1.2906-.712 2.262-1.8499 2.5342-3.2812h.1201v-1.5107c0-1.0899-.9004-1.9893-1.9903-1.9893H21.9893z" fill="#fff"/></svg>