<svg width="64" height="64" fill="none" xmlns="http://www.w3.org/2000/svg"><path opacity=".8" d="M33.4221 33.46c-.766-.831-2.078-.831-2.843 0l-5.228 5.677c-1.711 1.858-.394 4.863 2.132 4.863h9.034c2.526 0 3.843-3.005 2.132-4.863l-5.227-5.677zM41 35c1.6569 0 3-1.3431 3-3s-1.3431-3-3-3-3 1.3431-3 3 1.3431 3 3 3zM23 35c1.6569 0 3-1.3431 3-3s-1.3431-3-3-3-3 1.3431-3 3 1.3431 3 3 3zM32 31c1.6569 0 3-1.3431 3-3s-1.3431-3-3-3-3 1.3431-3 3 1.3431 3 3 3z" fill="#216E7A"/><path d="M45 8.10498c-5.8 0-10.922 3.86002-13 9.39802-2.078-5.538-7.2-9.39802-13-9.39802-7.72 0-14 6.67402-14 14.87702 0 16.019 13.418 26.765 21.417 31.745 1.722 1.072 3.652 1.608 5.583 1.608s3.861-.536 5.583-1.608C45.582 49.747 59 39.001 59 22.982c0-8.203-6.28-14.87702-14-14.87702zM36.526 53.03c-2.792 1.738-6.26 1.736-9.052 0C19.828 48.269 7 38.034 7 22.982c0-7.101 5.383-12.877 12-12.877 5.917 0 11.017 4.741 11.861 11.027l.117.868h2.044l.117-.867c.844-6.286 5.944-11.028 11.861-11.028 6.617 0 12 5.776 12 12.877 0 15.052-12.828 25.287-20.474 30.048z" fill="#216E7A"/><path d="M46 13v2c3.309 0 6 2.691 6 6h2c0-4.411-3.589-8-8-8z" fill="#216E7A"/><path d="M46 17v2c1.103 0 2 .897 2 2h2c0-2.206-1.794-4-4-4z" fill="#216E7A"/></svg>