<svg width="480" height="431" viewBox="0 0 480 431" fill="none" xmlns="http://www.w3.org/2000/svg">
<path d="M139.976 364V354.047H143.229C144.31 354.047 145.121 354.27 145.663 354.717C146.21 355.163 146.483 355.824 146.483 356.699C146.483 357.164 146.351 357.576 146.087 357.937C145.823 358.292 145.463 358.568 145.007 358.764C145.545 358.914 145.968 359.201 146.278 359.625C146.593 360.044 146.75 360.546 146.75 361.129C146.75 362.022 146.461 362.724 145.882 363.234C145.303 363.745 144.485 364 143.428 364H139.976ZM141.288 359.345V362.927H143.455C144.066 362.927 144.547 362.77 144.897 362.455C145.253 362.136 145.431 361.699 145.431 361.143C145.431 359.944 144.779 359.345 143.476 359.345H141.288ZM141.288 358.292H143.271C143.845 358.292 144.303 358.148 144.645 357.861C144.991 357.574 145.164 357.185 145.164 356.692C145.164 356.146 145.005 355.749 144.686 355.503C144.367 355.252 143.881 355.127 143.229 355.127H141.288V358.292ZM151.569 364.137C150.567 364.137 149.751 363.809 149.122 363.152C148.493 362.492 148.179 361.61 148.179 360.507V360.274C148.179 359.541 148.318 358.887 148.596 358.312C148.878 357.734 149.27 357.283 149.771 356.959C150.277 356.631 150.824 356.467 151.412 356.467C152.374 356.467 153.121 356.784 153.654 357.417C154.188 358.05 154.454 358.957 154.454 360.138V360.664H149.443C149.462 361.393 149.674 361.983 150.079 362.435C150.489 362.881 151.009 363.104 151.638 363.104C152.084 363.104 152.463 363.013 152.772 362.831C153.082 362.649 153.354 362.407 153.586 362.106L154.358 362.708C153.739 363.66 152.809 364.137 151.569 364.137ZM151.412 357.506C150.902 357.506 150.473 357.693 150.127 358.066C149.781 358.436 149.566 358.955 149.484 359.625H153.189V359.529C153.153 358.887 152.98 358.39 152.67 358.039C152.36 357.684 151.941 357.506 151.412 357.506ZM158.891 363.104C159.342 363.104 159.736 362.968 160.073 362.694C160.41 362.421 160.597 362.079 160.634 361.669H161.83C161.807 362.093 161.661 362.496 161.393 362.879C161.124 363.262 160.764 363.567 160.312 363.795C159.866 364.023 159.392 364.137 158.891 364.137C157.883 364.137 157.081 363.802 156.484 363.132C155.892 362.457 155.596 361.537 155.596 360.37V360.158C155.596 359.438 155.728 358.798 155.992 358.237C156.257 357.677 156.635 357.242 157.127 356.932C157.624 356.622 158.209 356.467 158.884 356.467C159.713 356.467 160.401 356.715 160.948 357.212C161.5 357.709 161.794 358.354 161.83 359.146H160.634C160.597 358.668 160.415 358.276 160.087 357.971C159.763 357.661 159.362 357.506 158.884 357.506C158.241 357.506 157.742 357.738 157.387 358.203C157.036 358.663 156.86 359.331 156.86 360.206V360.445C156.86 361.298 157.036 361.954 157.387 362.414C157.738 362.874 158.239 363.104 158.891 363.104ZM162.917 360.233C162.917 359.509 163.058 358.857 163.341 358.278C163.628 357.7 164.024 357.253 164.53 356.938C165.041 356.624 165.622 356.467 166.273 356.467C167.281 356.467 168.094 356.815 168.714 357.513C169.338 358.21 169.65 359.137 169.65 360.295V360.384C169.65 361.104 169.511 361.751 169.233 362.325C168.96 362.895 168.566 363.339 168.051 363.658C167.54 363.977 166.952 364.137 166.287 364.137C165.285 364.137 164.471 363.788 163.847 363.091C163.227 362.394 162.917 361.471 162.917 360.322V360.233ZM164.188 360.384C164.188 361.204 164.378 361.863 164.756 362.359C165.139 362.856 165.649 363.104 166.287 363.104C166.93 363.104 167.44 362.854 167.818 362.353C168.197 361.847 168.386 361.14 168.386 360.233C168.386 359.422 168.192 358.766 167.805 358.265C167.422 357.759 166.911 357.506 166.273 357.506C165.649 357.506 165.146 357.754 164.763 358.251C164.38 358.748 164.188 359.459 164.188 360.384ZM172.426 356.604L172.46 357.424C173.002 356.786 173.734 356.467 174.654 356.467C175.689 356.467 176.393 356.863 176.767 357.656C177.013 357.301 177.332 357.014 177.724 356.795C178.12 356.576 178.587 356.467 179.125 356.467C180.747 356.467 181.572 357.326 181.6 359.044V364H180.335V359.119C180.335 358.59 180.214 358.196 179.973 357.937C179.731 357.672 179.326 357.54 178.756 357.54C178.286 357.54 177.897 357.681 177.587 357.964C177.277 358.242 177.097 358.618 177.047 359.092V364H175.775V359.153C175.775 358.078 175.249 357.54 174.196 357.54C173.367 357.54 172.799 357.893 172.494 358.6V364H171.229V356.604H172.426ZM186.583 364.137C185.58 364.137 184.765 363.809 184.136 363.152C183.507 362.492 183.192 361.61 183.192 360.507V360.274C183.192 359.541 183.331 358.887 183.609 358.312C183.892 357.734 184.284 357.283 184.785 356.959C185.291 356.631 185.838 356.467 186.426 356.467C187.387 356.467 188.135 356.784 188.668 357.417C189.201 358.05 189.468 358.957 189.468 360.138V360.664H184.457C184.475 361.393 184.687 361.983 185.093 362.435C185.503 362.881 186.022 363.104 186.651 363.104C187.098 363.104 187.476 363.013 187.786 362.831C188.096 362.649 188.367 362.407 188.6 362.106L189.372 362.708C188.752 363.66 187.823 364.137 186.583 364.137ZM186.426 357.506C185.915 357.506 185.487 357.693 185.141 358.066C184.794 358.436 184.58 358.955 184.498 359.625H188.203V359.529C188.167 358.887 187.993 358.39 187.684 358.039C187.374 357.684 186.954 357.506 186.426 357.506ZM198.977 364C198.904 363.854 198.844 363.594 198.799 363.221C198.211 363.831 197.509 364.137 196.693 364.137C195.964 364.137 195.365 363.932 194.896 363.521C194.431 363.107 194.198 362.583 194.198 361.949C194.198 361.179 194.49 360.582 195.073 360.158C195.661 359.73 196.486 359.516 197.548 359.516H198.778V358.935C198.778 358.493 198.646 358.142 198.382 357.882C198.118 357.618 197.728 357.485 197.213 357.485C196.762 357.485 196.383 357.599 196.078 357.827C195.773 358.055 195.62 358.331 195.62 358.654H194.349C194.349 358.285 194.479 357.93 194.738 357.588C195.003 357.242 195.358 356.968 195.805 356.768C196.256 356.567 196.75 356.467 197.288 356.467C198.14 356.467 198.808 356.681 199.291 357.109C199.774 357.533 200.025 358.119 200.043 358.866V362.271C200.043 362.95 200.13 363.49 200.303 363.891V364H198.977ZM196.878 363.036C197.274 363.036 197.65 362.934 198.006 362.729C198.361 362.523 198.619 362.257 198.778 361.929V360.411H197.787C196.238 360.411 195.463 360.865 195.463 361.771C195.463 362.168 195.595 362.478 195.859 362.701C196.124 362.924 196.463 363.036 196.878 363.036ZM211.746 360.384C211.746 361.509 211.489 362.416 210.974 363.104C210.459 363.793 209.761 364.137 208.882 364.137C207.984 364.137 207.278 363.852 206.763 363.282V366.844H205.498V356.604H206.653L206.715 357.424C207.23 356.786 207.945 356.467 208.861 356.467C209.75 356.467 210.452 356.802 210.967 357.472C211.486 358.142 211.746 359.074 211.746 360.268V360.384ZM210.481 360.24C210.481 359.406 210.304 358.748 209.948 358.265C209.593 357.782 209.105 357.54 208.485 357.54C207.72 357.54 207.146 357.88 206.763 358.559V362.093C207.141 362.767 207.72 363.104 208.499 363.104C209.105 363.104 209.586 362.865 209.941 362.387C210.301 361.904 210.481 361.188 210.481 360.24ZM217.926 364C217.853 363.854 217.794 363.594 217.748 363.221C217.16 363.831 216.458 364.137 215.643 364.137C214.913 364.137 214.314 363.932 213.845 363.521C213.38 363.107 213.147 362.583 213.147 361.949C213.147 361.179 213.439 360.582 214.022 360.158C214.61 359.73 215.435 359.516 216.497 359.516H217.728V358.935C217.728 358.493 217.595 358.142 217.331 357.882C217.067 357.618 216.677 357.485 216.162 357.485C215.711 357.485 215.333 357.599 215.027 357.827C214.722 358.055 214.569 358.331 214.569 358.654H213.298C213.298 358.285 213.428 357.93 213.688 357.588C213.952 357.242 214.307 356.968 214.754 356.768C215.205 356.567 215.7 356.467 216.237 356.467C217.09 356.467 217.757 356.681 218.24 357.109C218.723 357.533 218.974 358.119 218.992 358.866V362.271C218.992 362.95 219.079 363.49 219.252 363.891V364H217.926ZM215.827 363.036C216.224 363.036 216.6 362.934 216.955 362.729C217.311 362.523 217.568 362.257 217.728 361.929V360.411H216.736C215.187 360.411 214.412 360.865 214.412 361.771C214.412 362.168 214.544 362.478 214.809 362.701C215.073 362.924 215.412 363.036 215.827 363.036ZM224.55 357.738C224.358 357.706 224.151 357.69 223.928 357.69C223.098 357.69 222.535 358.044 222.239 358.75V364H220.975V356.604H222.205L222.226 357.458C222.64 356.797 223.228 356.467 223.989 356.467C224.235 356.467 224.422 356.499 224.55 356.562V357.738ZM227.776 354.812V356.604H229.157V357.581H227.776V362.168C227.776 362.464 227.838 362.688 227.961 362.838C228.084 362.984 228.294 363.057 228.59 363.057C228.736 363.057 228.936 363.029 229.191 362.975V364C228.859 364.091 228.535 364.137 228.221 364.137C227.656 364.137 227.229 363.966 226.942 363.624C226.655 363.282 226.512 362.797 226.512 362.168V357.581H225.165V356.604H226.512V354.812H227.776ZM233.778 360.233C233.778 359.509 233.92 358.857 234.202 358.278C234.489 357.7 234.886 357.253 235.392 356.938C235.902 356.624 236.483 356.467 237.135 356.467C238.142 356.467 238.955 356.815 239.575 357.513C240.2 358.21 240.512 359.137 240.512 360.295V360.384C240.512 361.104 240.373 361.751 240.095 362.325C239.821 362.895 239.427 363.339 238.912 363.658C238.402 363.977 237.814 364.137 237.148 364.137C236.146 364.137 235.332 363.788 234.708 363.091C234.088 362.394 233.778 361.471 233.778 360.322V360.233ZM235.05 360.384C235.05 361.204 235.239 361.863 235.617 362.359C236 362.856 236.51 363.104 237.148 363.104C237.791 363.104 238.301 362.854 238.68 362.353C239.058 361.847 239.247 361.14 239.247 360.233C239.247 359.422 239.053 358.766 238.666 358.265C238.283 357.759 237.773 357.506 237.135 357.506C236.51 357.506 236.007 357.754 235.624 358.251C235.241 358.748 235.05 359.459 235.05 360.384ZM242.72 364V357.581H241.551V356.604H242.72V355.845C242.72 355.052 242.932 354.439 243.355 354.006C243.779 353.573 244.379 353.356 245.153 353.356C245.445 353.356 245.734 353.395 246.021 353.473L245.953 354.498C245.739 354.457 245.511 354.437 245.27 354.437C244.859 354.437 244.543 354.557 244.319 354.799C244.096 355.036 243.984 355.378 243.984 355.824V356.604H245.563V357.581H243.984V364H242.72ZM252.153 354.812V356.604H253.534V357.581H252.153V362.168C252.153 362.464 252.215 362.688 252.338 362.838C252.461 362.984 252.671 363.057 252.967 363.057C253.113 363.057 253.313 363.029 253.568 362.975V364C253.236 364.091 252.912 364.137 252.598 364.137C252.033 364.137 251.606 363.966 251.319 363.624C251.032 363.282 250.889 362.797 250.889 362.168V357.581H249.542V356.604H250.889V354.812H252.153ZM256.282 357.499C256.843 356.811 257.572 356.467 258.47 356.467C260.033 356.467 260.821 357.349 260.835 359.112V364H259.57V359.105C259.566 358.572 259.443 358.178 259.201 357.923C258.964 357.668 258.593 357.54 258.087 357.54C257.677 357.54 257.317 357.649 257.007 357.868C256.697 358.087 256.455 358.374 256.282 358.729V364H255.018V353.5H256.282V357.499ZM265.798 364.137C264.795 364.137 263.979 363.809 263.351 363.152C262.722 362.492 262.407 361.61 262.407 360.507V360.274C262.407 359.541 262.546 358.887 262.824 358.312C263.107 357.734 263.499 357.283 264 356.959C264.506 356.631 265.053 356.467 265.641 356.467C266.602 356.467 267.35 356.784 267.883 357.417C268.416 358.05 268.683 358.957 268.683 360.138V360.664H263.672C263.69 361.393 263.902 361.983 264.308 362.435C264.718 362.881 265.237 363.104 265.866 363.104C266.313 363.104 266.691 363.013 267.001 362.831C267.311 362.649 267.582 362.407 267.814 362.106L268.587 362.708C267.967 363.66 267.037 364.137 265.798 364.137ZM265.641 357.506C265.13 357.506 264.702 357.693 264.355 358.066C264.009 358.436 263.795 358.955 263.713 359.625H267.418V359.529C267.382 358.887 267.208 358.39 266.898 358.039C266.589 357.684 266.169 357.506 265.641 357.506ZM276.592 363.104C277.043 363.104 277.437 362.968 277.774 362.694C278.112 362.421 278.299 362.079 278.335 361.669H279.531C279.508 362.093 279.363 362.496 279.094 362.879C278.825 363.262 278.465 363.567 278.014 363.795C277.567 364.023 277.093 364.137 276.592 364.137C275.585 364.137 274.783 363.802 274.186 363.132C273.593 362.457 273.297 361.537 273.297 360.37V360.158C273.297 359.438 273.429 358.798 273.693 358.237C273.958 357.677 274.336 357.242 274.828 356.932C275.325 356.622 275.91 356.467 276.585 356.467C277.414 356.467 278.103 356.715 278.649 357.212C279.201 357.709 279.495 358.354 279.531 359.146H278.335C278.299 358.668 278.116 358.276 277.788 357.971C277.465 357.661 277.063 357.506 276.585 357.506C275.942 357.506 275.443 357.738 275.088 358.203C274.737 358.663 274.562 359.331 274.562 360.206V360.445C274.562 361.298 274.737 361.954 275.088 362.414C275.439 362.874 275.94 363.104 276.592 363.104ZM280.618 360.233C280.618 359.509 280.759 358.857 281.042 358.278C281.329 357.7 281.726 357.253 282.231 356.938C282.742 356.624 283.323 356.467 283.975 356.467C284.982 356.467 285.795 356.815 286.415 357.513C287.039 358.21 287.352 359.137 287.352 360.295V360.384C287.352 361.104 287.213 361.751 286.935 362.325C286.661 362.895 286.267 363.339 285.752 363.658C285.242 363.977 284.654 364.137 283.988 364.137C282.986 364.137 282.172 363.788 281.548 363.091C280.928 362.394 280.618 361.471 280.618 360.322V360.233ZM281.89 360.384C281.89 361.204 282.079 361.863 282.457 362.359C282.84 362.856 283.35 363.104 283.988 363.104C284.631 363.104 285.141 362.854 285.52 362.353C285.898 361.847 286.087 361.14 286.087 360.233C286.087 359.422 285.893 358.766 285.506 358.265C285.123 357.759 284.613 357.506 283.975 357.506C283.35 357.506 282.847 357.754 282.464 358.251C282.081 358.748 281.89 359.459 281.89 360.384ZM290.127 356.604L290.161 357.424C290.703 356.786 291.435 356.467 292.355 356.467C293.39 356.467 294.094 356.863 294.468 357.656C294.714 357.301 295.033 357.014 295.425 356.795C295.821 356.576 296.288 356.467 296.826 356.467C298.449 356.467 299.273 357.326 299.301 359.044V364H298.036V359.119C298.036 358.59 297.915 358.196 297.674 357.937C297.432 357.672 297.027 357.54 296.457 357.54C295.988 357.54 295.598 357.681 295.288 357.964C294.978 358.242 294.798 358.618 294.748 359.092V364H293.477V359.153C293.477 358.078 292.95 357.54 291.897 357.54C291.068 357.54 290.501 357.893 290.195 358.6V364H288.931V356.604H290.127ZM302.404 356.604L302.438 357.424C302.981 356.786 303.712 356.467 304.633 356.467C305.667 356.467 306.371 356.863 306.745 357.656C306.991 357.301 307.31 357.014 307.702 356.795C308.099 356.576 308.566 356.467 309.104 356.467C310.726 356.467 311.551 357.326 311.578 359.044V364H310.313V359.119C310.313 358.59 310.193 358.196 309.951 357.937C309.71 357.672 309.304 357.54 308.734 357.54C308.265 357.54 307.875 357.681 307.565 357.964C307.256 358.242 307.076 358.618 307.025 359.092V364H305.754V359.153C305.754 358.078 305.228 357.54 304.175 357.54C303.345 357.54 302.778 357.893 302.473 358.6V364H301.208V356.604H302.404ZM318.059 363.269C317.566 363.847 316.844 364.137 315.892 364.137C315.103 364.137 314.502 363.909 314.087 363.453C313.677 362.993 313.469 362.314 313.465 361.416V356.604H314.729V361.382C314.729 362.503 315.185 363.063 316.097 363.063C317.063 363.063 317.705 362.703 318.024 361.983V356.604H319.289V364H318.086L318.059 363.269ZM322.413 356.604L322.454 357.533C323.019 356.822 323.757 356.467 324.669 356.467C326.232 356.467 327.021 357.349 327.034 359.112V364H325.77V359.105C325.765 358.572 325.642 358.178 325.4 357.923C325.163 357.668 324.792 357.54 324.286 357.54C323.876 357.54 323.516 357.649 323.206 357.868C322.896 358.087 322.655 358.374 322.481 358.729V364H321.217V356.604H322.413ZM330.657 354.812V356.604H332.038V357.581H330.657V362.168C330.657 362.464 330.719 362.688 330.842 362.838C330.965 362.984 331.174 363.057 331.471 363.057C331.617 363.057 331.817 363.029 332.072 362.975V364C331.74 364.091 331.416 364.137 331.102 364.137C330.536 364.137 330.11 363.966 329.823 363.624C329.536 363.282 329.393 362.797 329.393 362.168V357.581H328.046V356.604H329.393V354.812H330.657ZM334.896 364H333.631V356.604H334.896V364ZM333.528 354.642C333.528 354.437 333.59 354.263 333.713 354.122C333.84 353.981 334.027 353.91 334.273 353.91C334.52 353.91 334.706 353.981 334.834 354.122C334.962 354.263 335.025 354.437 335.025 354.642C335.025 354.847 334.962 355.018 334.834 355.154C334.706 355.291 334.52 355.359 334.273 355.359C334.027 355.359 333.84 355.291 333.713 355.154C333.59 355.018 333.528 354.847 333.528 354.642ZM338.642 354.812V356.604H340.022V357.581H338.642V362.168C338.642 362.464 338.703 362.688 338.826 362.838C338.949 362.984 339.159 363.057 339.455 363.057C339.601 363.057 339.801 363.029 340.057 362.975V364C339.724 364.091 339.4 364.137 339.086 364.137C338.521 364.137 338.095 363.966 337.808 363.624C337.521 363.282 337.377 362.797 337.377 362.168V357.581H336.03V356.604H337.377V354.812H338.642ZM343.926 362.147L345.648 356.604H347.002L344.028 365.142C343.568 366.372 342.837 366.987 341.834 366.987L341.595 366.967L341.123 366.878V365.853L341.465 365.88C341.893 365.88 342.226 365.793 342.463 365.62C342.704 365.447 342.903 365.13 343.058 364.67L343.338 363.918L340.699 356.604H342.08L343.926 362.147Z" fill="#0D444D"/>
<g filter="url(#filter0_d)">
<circle cx="236.5" cy="262.5" r="72.5" fill="white"/>
</g>
<path opacity="0.8" d="M238.422 264.46C237.656 263.629 236.344 263.629 235.579 264.46L230.351 270.137C228.64 271.995 229.957 275 232.483 275H241.517C244.043 275 245.36 271.995 243.649 270.137L238.422 264.46Z" fill="#216E7A"/>
<path opacity="0.8" d="M246 266C247.657 266 249 264.657 249 263C249 261.343 247.657 260 246 260C244.343 260 243 261.343 243 263C243 264.657 244.343 266 246 266Z" fill="#216E7A"/>
<path opacity="0.8" d="M228 266C229.657 266 231 264.657 231 263C231 261.343 229.657 260 228 260C226.343 260 225 261.343 225 263C225 264.657 226.343 266 228 266Z" fill="#216E7A"/>
<path opacity="0.8" d="M237 262C238.657 262 240 260.657 240 259C240 257.343 238.657 256 237 256C235.343 256 234 257.343 234 259C234 260.657 235.343 262 237 262Z" fill="#216E7A"/>
<path d="M250 239.105C244.2 239.105 239.078 242.965 237 248.503C234.922 242.965 229.8 239.105 224 239.105C216.28 239.105 210 245.779 210 253.982C210 270.001 223.418 280.747 231.417 285.727C233.139 286.799 235.069 287.335 237 287.335C238.931 287.335 240.861 286.799 242.583 285.727C250.582 280.747 264 270.001 264 253.982C264 245.779 257.72 239.105 250 239.105ZM241.526 284.03C238.734 285.768 235.266 285.766 232.474 284.03C224.828 279.269 212 269.034 212 253.982C212 246.881 217.383 241.105 224 241.105C229.917 241.105 235.017 245.846 235.861 252.132L235.978 253H238.022L238.139 252.133C238.983 245.847 244.083 241.105 250 241.105C256.617 241.105 262 246.881 262 253.982C262 269.034 249.172 279.269 241.526 284.03Z" fill="#216E7A"/>
<path d="M251 244V246C254.309 246 257 248.691 257 252H259C259 247.589 255.411 244 251 244Z" fill="#216E7A"/>
<path d="M251 248V250C252.103 250 253 250.897 253 252H255C255 249.794 253.206 248 251 248Z" fill="#216E7A"/>
<defs>
<filter id="filter0_d" x="114" y="142" width="245" height="245" filterUnits="userSpaceOnUse" color-interpolation-filters="sRGB">
<feFlood flood-opacity="0" result="BackgroundImageFix"/>
<feColorMatrix in="SourceAlpha" type="matrix" values="0 0 0 0 0 0 0 0 0 0 0 0 0 0 0 0 0 0 127 0" result="hardAlpha"/>
<feOffset dy="2"/>
<feGaussianBlur stdDeviation="25"/>
<feColorMatrix type="matrix" values="0 0 0 0 0 0 0 0 0 0 0 0 0 0 0 0 0 0 0.06 0"/>
<feBlend mode="normal" in2="BackgroundImageFix" result="effect1_dropShadow"/>
<feBlend mode="normal" in="SourceGraphic" in2="effect1_dropShadow" result="shape"/>
</filter>
</defs>
</svg>
