<svg width="108" height="84" fill="none" xmlns="http://www.w3.org/2000/svg"><path fill-rule="evenodd" clip-rule="evenodd" d="M29.6128 58.3841v-8.868h15.623c.3258 0 .6452.0221.9649.0443.0373.0026.0745.0051.1118.0077l-2.258 4.382h-9.978v4.434c0 6.1123 5.0061 11.0851 11.1593 11.0851h11.1593v-4.434c0-4.8464-3.1669-8.9303-7.5369-10.4312l-2.4673-5.0316c8.0749.5919 14.4679 7.2953 14.4679 15.4628v4.434c0 2.4454-2.002 4.434-4.4637 4.434H45.2358c-8.6128 0-15.623-6.9636-15.623-15.5191zm54.6412-8.8117c.0067-.0111.0392-.0563.0392-.0563l.0393.052c.0372-.0026.0745-.0051.1117-.0077.3197-.0222.6391-.0443.965-.0443h15.6228v8.868c0 8.5555-7.0101 15.5191-15.6228 15.5191H74.2499c-2.4617 0-4.4637-1.9886-4.4637-4.434v-4.434c0-8.1675 6.393-14.8709 14.4678-15.4628zm12.3144 4.3777h-9.9779c.5847 1.5852 1.0505 3.4918 1.0505 5.5426 0 5.5092-3.3478 9.9765-3.3478 9.9765s-3.3477-4.4673-3.3477-9.9765c0-1.787.3659-3.4388.8413-4.8887-4.37 1.5009-7.5369 5.5848-7.5369 10.4312v4.434h11.1593c6.1532 0 11.1592-4.9728 11.1592-11.0851v-4.434z" fill="#C5E1E6"/><path d="M46.3909 49.5724c-.0067-.0111-.0392-.0563-.0392-.0563l-.0392.052-2.258 4.382c-.5848 1.5852-1.0506 3.4918-1.0506 5.5426 0 5.5092 3.3478 9.9765 3.3478 9.9765s3.3478-4.4673 3.3478-9.9765c0-1.787-.3659-3.4388-.8413-4.8887l-2.4673-5.0316z" fill="#C5E1E6"/><path d="M10.3123 32.3484c-2.71746 0-4.8194-.6968-6.30585-2.0903-1.48645-1.4168-2.28774-3.3446-2.40387-5.7833l-.03484-1.5329.03484-1.5329c.11613-2.4155.92903-4.3316 2.43871-5.7484 1.50968-1.4167 3.6-2.1251 6.27101-2.1251 2.6709 0 4.7612.7084 6.2709 2.1251 1.5097 1.4168 2.3226 3.3329 2.4387 5.7484.0233.2787.0349.7897.0349 1.5329 0 .7433-.0116 1.2542-.0349 1.5329-.1161 2.4387-.9174 4.3665-2.4038 5.7833-1.4865 1.3935-3.5884 2.0903-6.3058 2.0903zm0-3.449c1.2309 0 2.1832-.3833 2.8567-1.1497.6736-.7897 1.0452-1.9394 1.1149-3.4491.0232-.2322.0348-.6851.0348-1.3587 0-.6735-.0116-1.1264-.0348-1.3587-.0697-1.5097-.4413-2.6477-1.1149-3.4142-.6735-.7896-1.6258-1.1845-2.8567-1.1845-1.23101 0-2.18327.3949-2.85682 1.1845-.67354.7665-1.04516 1.9045-1.11483 3.4142l-.03484 1.3587.03484 1.3587c.06967 1.5097.44129 2.6594 1.11483 3.4491.67355.7664 1.62581 1.1497 2.85682 1.1497zM23.7529 32c-.2322 0-.4297-.0813-.5922-.2439-.1626-.1626-.2439-.36-.2439-.5922V14.72c0-.2323.0813-.4297.2439-.5923.1625-.1625.36-.2438.5922-.2438h2.8568c.2323 0 .4297.0813.5923.2438.1625.1626.2438.36.2438.5923v1.4284c1.3703-1.7419 3.3097-2.6129 5.8181-2.6129 2.1368 0 3.8322.7084 5.0864 2.1251 1.2542 1.3936 1.8813 3.2981 1.8813 5.7136v9.7897c0 .2322-.0813.4296-.2438.5922-.1394.1626-.3368.2439-.5923.2439h-3.0658c-.2323 0-.4297-.0813-.5923-.2439-.1625-.1626-.2438-.36-.2438-.5922v-9.5807c0-1.3703-.3368-2.4271-1.0104-3.1703-.6503-.7664-1.6025-1.1497-2.8567-1.1497-1.231 0-2.2065.3833-2.9265 1.1497-.6968.7665-1.0451 1.8232-1.0451 3.1703v9.5807c0 .2322-.0813.4296-.2439.5922-.1394.1626-.3368.2439-.5923.2439h-3.0658zm21.775 0c-.2322 0-.4296-.0813-.5922-.2439-.1626-.1626-.2439-.36-.2439-.5922V8.10064c0-.25548.0813-.4529.2439-.59225.1626-.16259.36-.24388.5922-.24388h2.8916c.2555 0 .453.08129.5923.24388.1626.13935.2439.33677.2439.59225V31.1639c0 .2322-.0813.4296-.2439.5922-.1393.1626-.3368.2439-.5923.2439h-2.8916zm9.0459-21.1123c-.2323 0-.4297-.0812-.5923-.2438-.1626-.1626-.2439-.36-.2439-.5923V7.54322c0-.23225.0813-.42967.2439-.59225.1626-.16258.36-.24387.5923-.24387h3.1703c.2322 0 .4297.08129.5922.24387.1858.16258.2787.36.2787.59225v2.50838c0 .2323-.0812.4297-.2438.5923-.1626.1626-.3716.2438-.6271.2438h-3.1703zM54.7131 32c-.2323 0-.4297-.0813-.5923-.2439-.1625-.1626-.2438-.36-.2438-.5922V14.72c0-.2323.0813-.4297.2438-.5923.1626-.1625.36-.2438.5923-.2438h2.8916c.2555 0 .4529.0813.5923.2438.1626.1394.2438.3368.2438.5923v16.4439c0 .2322-.0812.4296-.2438.5922-.1394.1626-.3368.2439-.5923.2439h-2.8916zm9.186 0c-.2323 0-.4297-.0813-.5923-.2439-.1625-.1626-.2438-.36-.2438-.5922V14.72c0-.2323.0813-.4297.2438-.5923.1626-.1625.36-.2438.5923-.2438h2.8568c.2322 0 .4296.0813.5922.2438.1626.1626.2439.36.2439.5923v1.4284c1.3703-1.7419 3.3097-2.6129 5.8181-2.6129 2.1367 0 3.8322.7084 5.0864 2.1251 1.2542 1.3936 1.8813 3.2981 1.8813 5.7136v9.7897c0 .2322-.0813.4296-.2439.5922-.1393.1626-.3367.2439-.5922.2439h-3.0658c-.2323 0-.4297-.0813-.5923-.2439-.1626-.1626-.2439-.36-.2439-.5922v-9.5807c0-1.3703-.3367-2.4271-1.0103-3.1703-.6503-.7664-1.6026-1.1497-2.8568-1.1497-1.2309 0-2.2064.3833-2.9264 1.1497-.6968.7665-1.0452 1.8232-1.0452 3.1703v9.5807c0 .2322-.0813.4296-.2438.5922-.1394.1626-.3368.2439-.5923.2439h-3.0658zm28.7079.3484c-2.5781 0-4.6335-.7432-6.1664-2.2297-1.5097-1.5097-2.311-3.6232-2.4039-6.3406l-.0349-.871.0349-.871c.1161-2.6477.929-4.7264 2.4387-6.2361 1.5329-1.5097 3.5768-2.2645 6.1316-2.2645 2.7407 0 4.8542.8361 6.3407 2.5084 1.5093 1.6722 2.2643 3.9019 2.2643 6.689v.7316c0 .2323-.081.4297-.244.5923-.162.1626-.371.2438-.627.2438H88.7748v.2788c.0464 1.2774.3948 2.3574 1.0451 3.24.6736.8593 1.591 1.289 2.7523 1.289 1.3703 0 2.4735-.5342 3.3096-1.6026.2091-.2555.3717-.4181.4878-.4877.1393-.0697.3368-.1046.5922-.1046h2.9962c.209 0 .383.0697.523.2091.162.1161.243.2671.243.4529 0 .5574-.336 1.2193-1.0099 1.9858-.6503.7432-1.591 1.3935-2.8219 1.951-1.231.5574-2.6594.8361-4.2852.8361zm3.8671-10.9742v-.1045c0-1.3703-.3484-2.4736-1.0452-3.3097-.6735-.8361-1.6141-1.2542-2.8219-1.2542-1.2077 0-2.1484.4181-2.8219 1.2542-.6736.8361-1.0103 1.9394-1.0103 3.3097v.1045h7.6993zM2.19484 73.8064c-.25549 0-.46452-.0812-.6271-.2438-.13935-.1626-.20903-.3716-.20903-.6271v-2.4387c0-.3949.08129-.6968.24387-.9058.16258-.2323.25548-.36.27871-.3833L14.0052 53.5303H2.54323c-.23226 0-.42968-.0813-.59226-.2439-.16258-.1625-.24387-.36-.24387-.5922v-2.4039c0-.2555.06967-.4645.20903-.6271.16258-.1626.37161-.2438.6271-.2438H19.1961c.2555 0 .4645.0812.6271.2438.1626.1626.2439.3716.2439.6271v2.4039c0 .4181-.151.8245-.4529 1.2193L7.73419 69.6606H19.5794c.2554 0 .4645.0813.6271.2439.1625.1626.2438.3716.2438.6271v2.4387c0 .2555-.0813.4645-.2438.6271-.1626.1394-.3717.209-.6271.209H2.19484z" fill="#0D444D"/></svg>