<svg width="1920" height="523" fill="none" xmlns="http://www.w3.org/2000/svg"><path d="M106.95 173.296L-8.83377 285.477C-16.6103 293.011-21 303.376-21 314.204V432.84c0 22.091 17.90858 40 40 40h935.221c4.536 0 9.039.771 13.316 2.281l129.153 45.597c4.28 1.51 8.78 2.282 13.31 2.282h186.33c4.13 0 8.23-.639 12.16-1.894l242.37-77.372c3.94-1.255 8.04-1.894 12.17-1.894H1919.32c14.07 0 27.1-7.392 34.32-19.467l33.69-56.309c3.71-6.206 5.67-13.303 5.67-20.534V216.259c0-22.091-17.91-40-40-40h-14.1c-8.57 0-16.92-2.752-23.81-7.851l-134.81-99.8111c-7.5-5.5556-16.71-8.3112-26.04-7.7892l-181.76 10.1775c-10.08.5643-19.57 4.9193-26.58 12.1911L1431.51 201.968c-7.54 7.83-17.94 12.254-28.81 12.254h-87.48c-8.24 0-16.28-2.545-23.02-7.286l-93.95-66.098c-6.73-4.742-14.77-7.286-23.01-7.286H975.378c-9.249 0-18.212 3.205-25.364 9.07L810.117 257.349c-7.151 5.865-16.115 9.071-25.364 9.071H605.477c-8.637 0-17.041-2.795-23.957-7.968l-118.277-88.461c-6.916-5.172-15.321-7.967-23.957-7.967H134.784c-10.39 0-20.372 4.042-27.834 11.272z" fill="#2A808D" fill-opacity=".3"/><path d="M106.95 143.296L-8.83377 255.477C-16.6103 263.011-21 273.376-21 284.204V402.84c0 22.091 17.90858 40 40 40h935.221c4.536 0 9.039.771 13.316 2.281l129.153 45.597c4.28 1.51 8.78 2.282 13.31 2.282h186.33c4.13 0 8.23-.639 12.16-1.894l242.37-77.372c3.94-1.255 8.04-1.894 12.17-1.894h354.74c13.82 0 26.67-7.14 33.97-18.883l35.23-56.679c3.94-6.338 6.03-13.653 6.03-21.117V186.259c0-22.091-17.91-40-40-40h-14.1c-8.57 0-16.92-2.752-23.81-7.851l-134.81-99.8111c-7.5-5.5556-16.71-8.3112-26.04-7.7892l-181.76 10.1775c-10.08.5643-19.57 4.9193-26.58 12.1911L1431.51 171.968c-7.54 7.83-17.94 12.254-28.81 12.254h-87.48c-8.24 0-16.28-2.545-23.02-7.286l-93.95-66.098c-6.73-4.742-14.77-7.286-23.01-7.286H975.378c-9.249 0-18.212 3.205-25.364 9.07L810.117 227.349c-7.151 5.865-16.115 9.071-25.364 9.071H605.477c-8.637 0-17.041-2.795-23.957-7.968l-118.277-88.461c-6.916-5.172-15.321-7.967-23.957-7.967H134.784c-10.39 0-20.372 4.042-27.834 11.272z" fill="#2A8086"/><path d="M107.177 104.983L-7.75101 208.365C-16.1841 215.951-21 226.761-21 238.104v105.188c0 22.092 17.90858 40 40 40h61.7997c5.1992 0 10.3484-1.013 15.1597-2.984l189.8186-77.739c4.811-1.97 9.961-2.984 15.16-2.984h300.148c8.77 0 17.297 2.882 24.268 8.203l88.178 67.301c6.971 5.321 15.498 8.203 24.268 8.203h212.367c7.141 0 14.152 1.912 20.305 5.537l123.278 72.634c6.16 3.625 13.17 5.537 20.31 5.537h180.55c5.25 0 10.44-1.032 15.29-3.038l109.81-45.424 132.19-33.986c3.25-.836 6.6-1.26 9.96-1.26h194.39c8.09 0 15.99-2.453 22.65-7.036l136.56-93.866c6.67-4.583 14.57-7.036 22.66-7.036H1953c22.09 0 40-17.909 40-40v-87.415c0-22.092-17.91-40-40-40h-14.88c-8.09 0-15.99-2.454-22.66-7.037L1779.85 7.68683c-7.25-4.98502-15.94-7.439209-24.73-6.982331L1571.73 10.2382c-9.63.5004-18.75 4.4597-25.69 11.1496L1431.33 131.98c-7.46 7.188-17.41 11.204-27.76 11.204h-89.11c-7.77 0-15.37-2.263-21.87-6.512l-94.72-61.8728c-6.51-4.2488-14.11-6.5115-21.88-6.5115H974.569c-8.754 0-17.267 2.8718-24.232 8.1749L809.794 183.471c-6.965 5.303-15.478 8.175-24.232 8.175H604.699c-8.155 0-16.116-2.493-22.814-7.144l-119.007-82.636c-6.699-4.6515-14.659-7.1443-22.815-7.1443H133.928c-9.878 0-19.407 3.6552-26.751 10.2613z" fill="#2A808D" fill-opacity=".3"/><path d="M17.7216 85.4707H9.43311l3.55219 34.7323.7894 27.629h9.4725l-3.9469-27.629-1.5787-34.7323zM22.0984 152.568h-6.66c-.4677 0-.8328.404-.7852.87l3.4632 33.863.7675 26.861c.0122.427.3619.767.789.767h7.7953c.4803 0 .8494-.426.7814-.901l-3.8182-26.727-1.5445-33.98c-.0191-.421-.3665-.753-.7885-.753zM38.2288 176.249h-7.597c-.4642 0-.8282.399-.7861.861l1.6369 17.968v16.21c0 .469.4068.835.8733.785l8.0946-.865c.4501-.048.7676-.464.6954-.911l-2.494-15.426c-.0076-.048-.0109-.095-.0099-.143l.376-17.673c.0094-.442-.3467-.806-.7892-.806zM27.2292 219.665h-6.6599c-.4677 0-.8329.404-.7853.87l3.4566 33.797c.0044.044.0053.088.0024.131l-.7309 11.33c-.0294.455.3318.84.7877.84h7.6738c.4962 0 .8693-.452.775-.939l-2.1753-11.24c-.0073-.037-.0119-.076-.0136-.114l-1.5419-33.921c-.0192-.422-.3665-.754-.7886-.754zM4.85475 234.18c4.59298-2.739 11.17545-11.915 11.65515-18.858.03-.435-.3198-.707-.6844-.468-2.8649 1.879-11.71536 11.653-11.95083 18.748-.01758.53.52487.849.98008.578zM1.79097 207.966c1.68967 4.898 8.22523 5.71 12.77733 5.51.2944-.013.5804-.199.5653-.494-.1183-2.312-7.66998-5.51-12.63244-5.906-.49679-.04-.87272.419-.71019.89zM27.4336 166.378c5.727-1.23 15.4616-8.305 17.7593-14.956.1423-.412-.1229-.782-.5451-.673-3.5206.908-15.9815 7.932-17.9884 14.809-.1432.491.2744.928.7742.82zM106.489 187.537c-3.454 4.731-13.8771 10.745-20.8877 10.138-.4344-.038-.6644-.431-.3932-.772 2.2617-2.847 13.7486-11.371 20.8469-10.407.506.069.736.628.434 1.041zM116.463 105.145c-6.16 5.538-22.7405 10.603-31.7082 7.145-.4068-.156-.5435-.606-.2142-.892 3.5086-3.045 22.8684-11.5693 31.7624-7.388.453.213.532.8.16 1.135zM90.9252 87.2624c.4046 6.4788-4.1998 18.8296-10.4582 22.8146-.3678.234-.7989.069-.811-.366-.1079-3.896 3.6857-19.3282 10.2888-22.9982.4374-.2431.9493.0501.9804.5496zM102.619 130.392c-2.9562-6.248-12.7156-15.072-19.3814-15.117-.4359-.003-.7159.377-.5175.765 1.8444 3.61 12.6352 15.809 19.3779 15.305.471-.035.723-.526.521-.953zM55.4235 84.3673l-8.2748-.4753 1.5546 34.879-.7963 27.628 9.457.543-2.3561-27.809.4156-34.7657zM79.6471 62.3393L71.4675 61l-2.1069 34.8502-3.6854 27.3928 9.348 1.531.5694-27.9034 4.0545-34.5313zM89.0691 135.619l-10.6875-1.996-2.88 34.82-4.9166 27.207 12.2143 2.282.8451-27.968 5.4247-34.345zM55.9451 151.605l-6.649-.382c-.4669-.027-.8547.356-.8338.823l1.5156 34.006-.7741 26.861c-.0123.427.3173.787.7438.811l7.7824.447c.4796.028.8723-.376.8318-.854l-2.2792-26.903.4066-34.011c.005-.422-.3228-.774-.7441-.798zM73.1239 129.262l-6.5724-1.076c-.4616-.076-.8873.264-.9155.731l-2.0542 33.978-3.5832 26.632c-.0569.424.2333.815.6548.884l7.6928 1.26c.4741.078.907-.283.9168-.763l.5508-26.993 3.9665-33.782c.0492-.419-.24-.803-.6564-.871zM80.5418 202.332l-9.0695-1.695c-.4695-.087-.9217.256-.9609.73l-2.806 33.925-4.8513 28.674c-.075.444.2386.848.6887.889l10.1638.912c.4589.042.8677-.313.888-.769l1.2537-28.185 5.3088-33.611c.0651-.412-.2046-.794-.6153-.87zM57.2313 218.887l-6.6612-.383c-.4666-.027-.8541.355-.834.822l1.137 26.331c.0017.038.0006.077-.0033.115l-1.8872 18.494c-.0444.435.2733.823.7084.866l10.1127.99c.5054.049.9253-.384.8596-.888l-2.6166-20.052-.0713-25.509c-.0012-.418-.3273-.762-.7441-.786zM35.3505 129.094c-2.0826 6.183 4.3818 12.989 9.3725 16.925.2259.179.5515.231.7415.014 1.8591-2.114-3.9411-12.373-8.9711-17.2-.3732-.358-.9778-.23-1.1429.261zM97.1342 218.119c-5.9873-.417-9.9046-8.51-11.7941-14.311-.0882-.271-.0264-.595.2436-.685 2.4437-.82 9.5347 7.871 12.2061 14.025.2086.481-.1329 1.008-.6556.971zM40.0909 215.291h-7.597c-.4643 0-.8283.399-.7861.861l1.6369 17.967v31.241c0 .469.4067.835.8732.785l8.1555-.871c.4267-.046.7388-.424.7028-.852l-2.5737-30.581.3776-17.744c.0094-.442-.3467-.806-.7892-.806z" fill="#216E7A"/><path d="M1118.51 283.5c1.24-18.343-15.09-45.506-20.5-46.5 0 0-30 46.5-44 74.5.44 4.344 2.26 6.642 2 11-.27 4.5-5.66 7.041-3.5 11 2.36 4.342 12.5 2 12.5 2 14-2.5 15-23 16.5-23.5 2.5 3.5 5.14 14.5 4 18.5-1 3.5-4.14 5.232-3 8.5 1.26 3.637 5 5 8.5 5 8.5.5 15.5-6 20-12 8.5-13 8.5-35.5 7.5-48.5z" fill="#0A5D69"/><rect x="990" y="221" width="123" height="92" rx="46" fill="#F3F6F7"/><path d="M1037.42 311.5c9.5-28 3.5-76-19-86.5-8.33.336-20.996 8-20.996 8s-28.975 34.921-32 62c.5 10.5 6.501 27.5 4.5 42-2.5 2.39-3 3-4.5 5.5-2 4 3.5 6.5 7.5 6.5 5 0 11.376-1.841 16.5-6.5 6.629-6.027 6-14 8-21.5 3.496 4.5 2.996 21.5.5 25.5-3.5 6-3 8-.5 10.5 6.996 3.833 20.496 0 26.496-8 8.5-13.5 9.22-22 13.5-37.5z" fill="#0A5D69"/><circle cx="963.5" cy="223.5" r="13.5" fill="#0A5D69"/><circle cx="1004.5" cy="217.5" r="13.5" fill="#0A5D69"/><rect x="950" y="213" width="79" height="71" rx="35.5" fill="#F3F6F7"/><ellipse cx="1004.63" cy="242.602" rx="8.85868" ry="11.6027" transform="rotate(-31.876 1004.63 242.602)" fill="#0A5D69"/><ellipse rx="8.85868" ry="11.6027" transform="matrix(-.97875 -.20504 -.20504 .97875 971.05 252.173)" fill="#0A5D69"/><path d="M983.5 261c.733 3.72 7.5 5.5 8.5 5.5.999 0 7.484-5.611 5.5-9.5-2-3.5-14.5-.5-14 4z" fill="#0A5D69"/><ellipse cx="973.5" cy="250" rx="2.5" ry="3" fill="#F3F6F7"/><ellipse cx="1000.5" cy="242" rx="2.5" ry="3" fill="#F3F6F7"/><path d="M1060.18 122h-10.5l4.5 44 1 35h12l-5-35-2-44zM1065.73 207h-8.44c-.59 0-1.05.512-.99 1.102l4.38 42.898.98 34.029c.01.541.45.971 1 .971h9.87c.61 0 1.08-.539.99-1.141L1068.68 251l-1.95-43.045c-.03-.534-.47-.955-1-.955zM1086.16 237h-9.62c-.59 0-1.05.505-1 1.091l2.08 22.761v20.535c0 .595.51 1.058 1.1.995l10.26-1.096c.57-.061.97-.588.88-1.154l-3.16-19.542c-.01-.06-.02-.12-.01-.181l.47-22.388c.01-.56-.44-1.021-1-1.021zM1072.23 292h-8.44c-.59 0-1.05.512-.99 1.102l4.37 42.815c.01.055.01.111.01.166l-.93 14.353c-.04.576.42 1.064 1 1.064h9.72c.63 0 1.1-.573.98-1.19l-2.75-14.238c-.01-.048-.02-.096-.02-.145l-1.95-42.972c-.03-.534-.47-.955-1-.955zM1043.88 310.387c5.82-3.469 14.16-15.093 14.77-23.889.04-.551-.41-.896-.87-.593-3.63 2.381-14.84 14.762-15.14 23.751-.02.671.67 1.075 1.24.731zM1040 277.18c2.14 6.205 10.42 7.233 16.19 6.979.37-.016.73-.252.71-.625-.15-2.93-9.71-6.981-16-7.482-.63-.051-1.1.531-.9 1.128zM1072.49 224.495c7.25-1.559 19.58-10.521 22.49-18.946.18-.522-.15-.991-.69-.853-4.46 1.15-20.24 10.049-22.78 18.76-.19.622.34 1.175.98 1.039zM1172.64 251.3c-4.38 5.993-17.58 13.612-26.47 12.842-.55-.047-.84-.545-.49-.977 2.86-3.607 17.41-14.406 26.41-13.184.64.087.93.796.55 1.319zM1185.27 146.924c-7.8 7.015-28.81 13.431-40.17 9.052-.51-.199-.69-.769-.27-1.131 4.45-3.858 28.97-14.656 40.24-9.359.57.27.67 1.014.2 1.438zM1152.92 124.27c.51 8.207-5.32 23.854-13.25 28.902-.47.297-1.01.088-1.03-.464-.13-4.936 4.67-24.485 13.04-29.135.55-.308 1.2.064 1.24.697zM1167.73 178.907c-3.74-7.915-16.11-19.093-24.55-19.15-.55-.004-.91.477-.66.969 2.34 4.574 16.01 20.027 24.55 19.388.6-.044.92-.666.66-1.207zM1107.94 120.602l-10.48-.602 1.97 44.186-1.01 34.999 11.98.689-2.98-35.23.52-44.042zM1138.63 92.6967L1128.27 91l-2.67 44.149-4.67 34.702 11.84 1.939.73-35.348 5.13-43.7453zM1150.57 185.529L1137.03 183l-3.65 44.111-6.23 34.466 15.48 2.891 1.07-35.43 6.87-43.509zM1108.61 205.78l-8.43-.484c-.59-.034-1.08.451-1.05 1.043l1.92 43.08-.98 34.028c-.02.541.4.996.94 1.027l9.86.566c.6.035 1.1-.476 1.05-1.082l-2.89-34.081.52-43.086c0-.535-.41-.98-.94-1.011zM1130.37 177.476l-8.33-1.364c-.58-.095-1.12.335-1.16.927l-2.6 43.043-4.54 33.739c-.07.536.3 1.032.83 1.12l9.75 1.596c.6.098 1.14-.358 1.16-.967l.69-34.195 5.03-42.796c.06-.531-.3-1.017-.83-1.103zM1139.77 270.042l-11.49-2.147c-.6-.111-1.17.324-1.22.924l-3.56 42.977-6.14 36.325c-.1.562.3 1.075.87 1.126l12.88 1.156c.58.052 1.1-.396 1.12-.975l1.59-35.705 6.72-42.579c.09-.522-.25-1.005-.77-1.102zM1110.23 291.014l-8.43-.485c-.59-.034-1.09.45-1.06 1.042l1.44 33.357v.144l-2.39 23.429c-.06.551.34 1.043.89 1.097l12.81 1.254c.64.063 1.18-.486 1.09-1.124l-3.31-25.403-.09-32.316c0-.529-.42-.965-.95-.995zM1082.52 177.262c-2.64 7.834 5.55 16.456 11.87 21.442.29.226.7.292.94.018 2.35-2.679-4.99-15.675-11.37-21.79-.47-.454-1.24-.291-1.44.33zM1160.78 290.041c-7.58-.528-12.54-10.781-14.94-18.129-.11-.343-.03-.754.31-.868 3.1-1.039 12.08 9.971 15.47 17.768.26.609-.17 1.276-.84 1.229zM1088.52 286.459h-9.62c-.59 0-1.05.505-1 1.09l2.08 22.762v39.576c0 .595.51 1.058 1.1.995l10.33-1.104c.54-.058.94-.537.89-1.078l-3.26-38.741.48-22.479c.01-.561-.44-1.021-1-1.021z" fill="#216E7A"/><circle cx="1680.07" cy="272.214" r="65.0658" fill="#216E7A"/><circle cx="1680.07" cy="227.066" r="65.0658" fill="#216E7A"/><rect x="1669.47" y="273.974" width="15.1316" height="118.026" rx="7.56579" fill="#1D6874"/><circle cx="285.066" cy="156.214" r="65.0658" fill="#216E7A"/><circle cx="285.066" cy="111.066" r="65.0658" fill="#216E7A"/><rect x="274.474" y="157.974" width="15.1316" height="118.026" rx="7.56579" fill="#1D6874"/><circle cx="839.697" cy="181.712" r="44.6974" fill="#216E7A"/><circle cx="839.697" cy="150.697" r="44.6974" fill="#216E7A"/><rect x="832.421" y="182.921" width="10.3947" height="81.0789" rx="5.19737" fill="#1D6874"/></svg>